<svg xmlns="http://www.w3.org/2000/svg" viewBox="0 0 960 1100" font-family="'Segoe UI', system-ui, -apple-system, sans-serif">
  <defs>
    <style>
      .zone { rx: 12; ry: 12; stroke-width: 1.5; }
      .box { rx: 8; ry: 8; stroke-width: 1.5; }
      .title { font-size: 26px; font-weight: 700; fill: #1e1e1e; }
      .subtitle { font-size: 14px; fill: #757575; }
      .zone-label { font-size: 16px; font-weight: 600; }
      .box-label { font-size: 13px; fill: #1e1e1e; text-anchor: middle; }
      .box-count { font-size: 11px; fill: #555; text-anchor: middle; }
      .pattern-label { font-size: 12.5px; fill: #5d4037; text-anchor: middle; }
      .arrow { stroke-width: 1.8; fill: none; marker-end: url(#arrowhead); }
      .dash { stroke-dasharray: 6,4; }
      @media (prefers-color-scheme: dark) {
        svg { background: #1e1e2e; }
        .title { fill: #e5e5e5; }
        .subtitle { fill: #a0a0a0; }
        .box-label { fill: #e5e5e5; }
        .box-count { fill: #b0b0b0; }
        .pattern-label { fill: #d4c8a0; }
        .zone-label { fill: #e5e5e5; }
      }
    </style>
    <marker id="arrowhead" markerWidth="8" markerHeight="6" refX="7" refY="3" orient="auto">
      <path d="M0,0 L8,3 L0,6 Z" fill="#555"/>
    </marker>
  </defs>

  <!-- Title -->
  <text x="480" y="38" text-anchor="middle" class="title">pan-scm-sdk Architecture</text>
  <text x="480" y="60" text-anchor="middle" class="subtitle">Palo Alto Networks Strata Cloud Manager — Python SDK</text>

  <!-- ═══════════════ ENTRY POINT ZONE ═══════════════ -->
  <rect x="20" y="80" width="920" height="110" class="zone" fill="#dbe4ff" fill-opacity="0.4" stroke="#7e57c2" stroke-opacity="0.4"/>
  <text x="40" y="102" class="zone-label" fill="#5b21b6">Entry Point</text>

  <!-- client.py -->
  <rect x="40" y="115" width="180" height="55" class="box" fill="#b39ddb" fill-opacity="0.5" stroke="#7e57c2"/>
  <text x="130" y="140" class="box-label" font-weight="600">client.py</text>
  <text x="130" y="156" class="box-count">Scm() unified client</text>

  <!-- auth.py -->
  <rect x="260" y="115" width="180" height="55" class="box" fill="#b39ddb" fill-opacity="0.5" stroke="#7e57c2"/>
  <text x="350" y="140" class="box-label" font-weight="600">auth.py</text>
  <text x="350" y="156" class="box-count">OAuth2 credentials flow</text>

  <!-- arrow client → auth -->
  <line x1="220" y1="142" x2="258" y2="142" class="arrow" stroke="#7e57c2"/>

  <!-- exceptions -->
  <rect x="480" y="115" width="180" height="55" class="box" fill="#ef9a9a" fill-opacity="0.4" stroke="#ef4444"/>
  <text x="570" y="140" class="box-label" font-weight="600">exceptions/</text>
  <text x="570" y="156" class="box-count">ErrorHandler + hierarchy</text>

  <!-- arrow client → exceptions -->
  <line x1="440" y1="142" x2="478" y2="142" class="arrow dash" stroke="#ef4444"/>

  <!-- utils -->
  <rect x="700" y="115" width="200" height="55" class="box" fill="#80cbc4" fill-opacity="0.35" stroke="#06b6d4"/>
  <text x="800" y="140" class="box-label" font-weight="600">utils/</text>
  <text x="800" y="156" class="box-count">logging, tag_colors</text>

  <!-- ═══════════════ CONFIG ZONE ═══════════════ -->
  <rect x="20" y="220" width="920" height="330" class="zone" fill="#ede7f6" fill-opacity="0.45" stroke="#7e57c2" stroke-opacity="0.4"/>
  <text x="40" y="246" class="zone-label" fill="#5b21b6">config/ — Service Classes</text>

  <!-- arrow client → config -->
  <line x1="130" y1="170" x2="130" y2="258" class="arrow" stroke="#7e57c2"/>
  <text x="148" y="218" font-size="11" fill="#7e57c2">registers</text>

  <!-- Row 1: 5 category boxes -->
  <rect x="40" y="265" width="155" height="65" class="box" fill="#d1c4e9" fill-opacity="0.6" stroke="#7e57c2"/>
  <text x="117" y="290" class="box-label" font-weight="600">objects/</text>
  <text x="117" y="308" class="box-count">19 services</text>

  <rect x="215" y="265" width="155" height="65" class="box" fill="#d1c4e9" fill-opacity="0.6" stroke="#7e57c2"/>
  <text x="292" y="290" class="box-label" font-weight="600">security/</text>
  <text x="292" y="308" class="box-count">12 services</text>

  <rect x="390" y="265" width="155" height="65" class="box" fill="#d1c4e9" fill-opacity="0.6" stroke="#7e57c2"/>
  <text x="467" y="290" class="box-label" font-weight="600">network/</text>
  <text x="467" y="308" class="box-count">30 services</text>

  <rect x="565" y="265" width="155" height="65" class="box" fill="#d1c4e9" fill-opacity="0.6" stroke="#7e57c2"/>
  <text x="642" y="290" class="box-label" font-weight="600">deployment/</text>
  <text x="642" y="308" class="box-count">6 services</text>

  <rect x="740" y="265" width="160" height="65" class="box" fill="#d1c4e9" fill-opacity="0.6" stroke="#7e57c2"/>
  <text x="820" y="290" class="box-label" font-weight="600">setup/</text>
  <text x="820" y="308" class="box-count">5 services</text>

  <!-- Row 2: 2 category boxes -->
  <rect x="40" y="350" width="155" height="65" class="box" fill="#d1c4e9" fill-opacity="0.6" stroke="#7e57c2"/>
  <text x="117" y="375" class="box-label" font-weight="600">identity/</text>
  <text x="117" y="393" class="box-count">6 services</text>

  <rect x="215" y="350" width="155" height="65" class="box" fill="#d1c4e9" fill-opacity="0.6" stroke="#7e57c2"/>
  <text x="292" y="375" class="box-label" font-weight="600">mobile_agent/</text>
  <text x="292" y="393" class="box-count">2 services</text>

  <!-- CRUD pattern box -->
  <rect x="410" y="350" width="490" height="45" class="box" fill="#fff8e1" fill-opacity="0.7" stroke="#ffb300"/>
  <text x="655" y="378" class="pattern-label">Each: create() · get() · update() · delete() · list() · fetch()</text>

  <!-- BaseObject pattern box -->
  <rect x="410" y="415" width="490" height="45" class="box" fill="#fff8e1" fill-opacity="0.7" stroke="#ffb300"/>
  <text x="655" y="443" class="pattern-label">BaseObject  |  ENDPOINT  |  container validation  |  auto-pagination</text>

  <!-- ═══════════════ MODELS ZONE ═══════════════ -->
  <rect x="20" y="580" width="920" height="310" class="zone" fill="#e8f5e9" fill-opacity="0.45" stroke="#22c55e" stroke-opacity="0.5"/>
  <text x="40" y="606" class="zone-label" fill="#15803d">models/ — Pydantic Models</text>

  <!-- arrow config → models -->
  <line x1="460" y1="550" x2="460" y2="618" class="arrow" stroke="#22c55e"/>
  <text x="478" y="588" font-size="11" fill="#22c55e">validates via</text>

  <!-- Row 1: 5 model boxes -->
  <rect x="40" y="625" width="155" height="65" class="box" fill="#c8e6c9" fill-opacity="0.6" stroke="#22c55e"/>
  <text x="117" y="650" class="box-label" font-weight="600">objects/</text>
  <text x="117" y="668" class="box-count">19 models</text>

  <rect x="215" y="625" width="155" height="65" class="box" fill="#c8e6c9" fill-opacity="0.6" stroke="#22c55e"/>
  <text x="292" y="650" class="box-label" font-weight="600">security/</text>
  <text x="292" y="668" class="box-count">12 models</text>

  <rect x="390" y="625" width="155" height="65" class="box" fill="#c8e6c9" fill-opacity="0.6" stroke="#22c55e"/>
  <text x="467" y="650" class="box-label" font-weight="600">network/</text>
  <text x="467" y="668" class="box-count">31 models</text>

  <rect x="565" y="625" width="155" height="65" class="box" fill="#c8e6c9" fill-opacity="0.6" stroke="#22c55e"/>
  <text x="642" y="650" class="box-label" font-weight="600">deployment/</text>
  <text x="642" y="668" class="box-count">6 models</text>

  <rect x="740" y="625" width="160" height="65" class="box" fill="#c8e6c9" fill-opacity="0.6" stroke="#22c55e"/>
  <text x="820" y="650" class="box-label" font-weight="600">setup/</text>
  <text x="820" y="668" class="box-count">5 models</text>

  <!-- Row 2: 4 model boxes -->
  <rect x="40" y="710" width="155" height="55" class="box" fill="#c8e6c9" fill-opacity="0.6" stroke="#22c55e"/>
  <text x="117" y="735" class="box-label" font-weight="600">identity/</text>
  <text x="117" y="750" class="box-count">6 models</text>

  <rect x="215" y="710" width="155" height="55" class="box" fill="#c8e6c9" fill-opacity="0.6" stroke="#22c55e"/>
  <text x="292" y="735" class="box-label" font-weight="600">mobile_agent/</text>
  <text x="292" y="750" class="box-count">2 models</text>

  <rect x="390" y="710" width="155" height="55" class="box" fill="#c8e6c9" fill-opacity="0.6" stroke="#22c55e"/>
  <text x="467" y="735" class="box-label" font-weight="600">operations/</text>
  <text x="467" y="750" class="box-count">2 models</text>

  <rect x="565" y="710" width="155" height="55" class="box" fill="#c8e6c9" fill-opacity="0.6" stroke="#22c55e"/>
  <text x="642" y="735" class="box-label" font-weight="600">insights/</text>
  <text x="642" y="750" class="box-count">2 models</text>

  <!-- Model hierarchy pattern box -->
  <rect x="40" y="790" width="500" height="45" class="box" fill="#fff8e1" fill-opacity="0.7" stroke="#ffb300"/>
  <text x="290" y="818" class="pattern-label">Each: BaseModel → CreateModel → UpdateModel → ResponseModel</text>

  <!-- Extra config pattern box -->
  <rect x="560" y="790" width="340" height="45" class="box" fill="#fff8e1" fill-opacity="0.7" stroke="#ffb300"/>
  <text x="730" y="818" class="pattern-label">Create: extra="forbid" | Response: extra="ignore"</text>

  <!-- ═══════════════ OPERATIONS AND INSIGHTS ═══════════════ -->
  <rect x="20" y="870" width="440" height="100" class="zone" fill="#fff3e0" fill-opacity="0.45" stroke="#ffb300" stroke-opacity="0.5"/>
  <text x="40" y="895" class="zone-label" fill="#e65100">operations/ &amp; insights/</text>

  <rect x="40" y="910" width="120" height="42" class="box" fill="#ffe0b2" fill-opacity="0.6" stroke="#ffb300"/>
  <text x="100" y="936" class="box-label">Jobs</text>

  <rect x="180" y="910" width="140" height="42" class="box" fill="#ffe0b2" fill-opacity="0.6" stroke="#ffb300"/>
  <text x="250" y="936" class="box-label">CandidatePush</text>

  <rect x="340" y="910" width="100" height="42" class="box" fill="#ffe0b2" fill-opacity="0.6" stroke="#ffb300"/>
  <text x="390" y="936" class="box-label">Alerts</text>

  <!-- ═══════════════ TESTS ═══════════════ -->
  <rect x="500" y="870" width="440" height="100" class="zone" fill="#fce4ec" fill-opacity="0.4" stroke="#ec4899" stroke-opacity="0.5"/>
  <text x="520" y="895" class="zone-label" fill="#9d174d">tests/ — 6,020 tests | 100% coverage</text>

  <rect x="520" y="910" width="120" height="42" class="box" fill="#f8bbd0" fill-opacity="0.5" stroke="#ec4899"/>
  <text x="580" y="932" class="box-label">config/</text>
  <text x="580" y="946" class="box-count">81 tests</text>

  <rect x="660" y="910" width="120" height="42" class="box" fill="#f8bbd0" fill-opacity="0.5" stroke="#ec4899"/>
  <text x="720" y="932" class="box-label">models/</text>
  <text x="720" y="946" class="box-count">91 tests</text>

  <rect x="800" y="910" width="120" height="42" class="box" fill="#f8bbd0" fill-opacity="0.5" stroke="#ec4899"/>
  <text x="860" y="932" class="box-label">factories/</text>
  <text x="860" y="946" class="box-count">92 files</text>

  <!-- ═══════════════ LEGEND ═══════════════ -->
  <rect x="20" y="1000" width="920" height="75" rx="8" ry="8" fill="#f5f5f5" fill-opacity="0.5" stroke="#ccc" stroke-width="1"/>
  <text x="40" y="1022" font-size="12" font-weight="600" fill="#555">Legend:</text>

  <rect x="110" y="1010" width="18" height="18" rx="3" fill="#d1c4e9" fill-opacity="0.6" stroke="#7e57c2" stroke-width="1"/>
  <text x="134" y="1024" font-size="11" fill="#555">Service classes</text>

  <rect x="250" y="1010" width="18" height="18" rx="3" fill="#c8e6c9" fill-opacity="0.6" stroke="#22c55e" stroke-width="1"/>
  <text x="274" y="1024" font-size="11" fill="#555">Pydantic models</text>

  <rect x="390" y="1010" width="18" height="18" rx="3" fill="#ffe0b2" fill-opacity="0.6" stroke="#ffb300" stroke-width="1"/>
  <text x="414" y="1024" font-size="11" fill="#555">Operations</text>

  <rect x="500" y="1010" width="18" height="18" rx="3" fill="#f8bbd0" fill-opacity="0.5" stroke="#ec4899" stroke-width="1"/>
  <text x="524" y="1024" font-size="11" fill="#555">Tests</text>

  <rect x="590" y="1010" width="18" height="18" rx="3" fill="#fff8e1" fill-opacity="0.7" stroke="#ffb300" stroke-width="1"/>
  <text x="614" y="1024" font-size="11" fill="#555">SDK patterns</text>

  <line x1="110" y1="1050" x2="140" y2="1050" stroke="#7e57c2" stroke-width="1.8" marker-end="url(#arrowhead)"/>
  <text x="148" y="1054" font-size="11" fill="#555">Direct dependency</text>

  <line x1="300" y1="1050" x2="330" y2="1050" stroke="#ef4444" stroke-width="1.8" stroke-dasharray="6,4" marker-end="url(#arrowhead)"/>
  <text x="338" y="1054" font-size="11" fill="#555">Error handling</text>

  <text x="480" y="1054" font-size="11" fill="#555">Total: 80 services · 80+ models · 100% test coverage</text>
</svg>