<?xml version="1.0" encoding="UTF-8"?>
<svg id="Layer_1" data-name="Layer 1" xmlns="http://www.w3.org/2000/svg" viewBox="0 0 164.58 151.98">
  <defs>
    <style>
      .cls-1 {
        fill: #79b6db;
      }

      .cls-2 {
        fill: #f8f4d3;
      }

      .cls-3 {
        fill: #376c92;
      }

      .cls-4 {
        fill: #79b5db;
      }

      .cls-5 {
        fill: #7bb6da;
      }

      .cls-6 {
        fill: #13385e;
        font-family: MonaspaceArgon-Bold, 'Monaspace Argon';
        font-size: 23px;
        font-weight: 700;
      }

      .cls-7 {
        fill: #fad555;
      }

      .cls-8 {
        fill: #386e92;
      }

      .cls-9 {
        fill: #173758;
      }

      .cls-10 {
        fill: #f9d457;
      }

      .cls-11 {
        font-family: MonaspaceArgon-Regular, 'Monaspace Argon';
        font-size: 7px;
      }

      .cls-12 {
        fill: #eef4f6;
      }

      .cls-13 {
        fill: #f0f5f7;
      }

      .cls-14 {
        fill: #7cb6db;
      }

      .cls-15 {
        fill: #cfd5da;
      }

      .cls-16 {
        fill: #77b6dd;
      }

      .cls-17 {
        fill: #88aec4;
      }
    </style>
  </defs>
  <path class="cls-5" d="M118.65,127.42c2.12-.14,3.85-.09,5.88,0l-32.89,19.33c-6.8,4-14.24,3.54-20.94-.42l-32.12-18.95,5.77-.02,29.82,17.38c5.07,2.95,11.05,2.27,15.98-.62l28.51-16.7Z"/>
  <path class="cls-14" d="M145.07,45.03l-.11,40.64c-.95.12-1.81.08-2.59-.12-.01-13.1-.03-26.21-.04-39.33l-.14.24c-.52-4.63-2.29-9.69-6.66-12.24l-44.81-26.22c-4.99-2.92-11.08-4.07-16.32-1.05l-35.61,20.58c-.35-.27-.35-.62,0-1.04-.6-.28-1.24-.76-1.42-1.41L73.19,4.21c6.25-3.65,13.56-2.04,19.43,1.39l43.25,25.24c4.89,2.85,9.18,8.32,9.2,14.19Z"/>
  <path class="cls-4" d="M37.38,25.09c.64-.11.86.67,1.43.89.91.35.28.84,0,1.56l-9.24,5.37c-5.14,2.99-8.28,7.78-8.71,13.56-.17,12.99-.23,26.06-.17,39.2-.94.12-1.82.09-2.67-.1l.11-41.03c.04-5.96,4.53-11.26,9.5-14.02l9.76-5.44Z"/>
  <path class="cls-15" d="M47.88,49.64c-5.82-1.03-11.34-2.5-16.87-4.48-.18-1.12-.14-2.14,0-3.27,6.38,2.48,12.95,3.85,19.83,5.16-.91.91-1.94,1.42-2.96,2.6Z"/>
  <path class="cls-15" d="M116.95,49.38l-2.39-2.7c6.06-1.31,11.86-2.58,17.56-4.8.01,1.18.1,2.17-.05,3.3-4.96,1.77-9.83,3.11-15.12,4.2Z"/>
  <path class="cls-15" d="M117.89,69.86c-.09-1.18.92-2.11,1.24-3.4,4.38-1.04,8.57-2.11,12.88-3.72.22,1.08.18,2.14,0,3.3-4.52,1.63-8.96,2.83-14.12,3.82Z"/>
  <path class="cls-15" d="M44.56,69.72c-4.62-.86-9.03-2.18-13.56-3.7-.15-1.11-.12-2.12,0-3.28,4.05,1.44,8.03,2.58,12.28,3.52.4,1.17.76,2.18,1.28,3.46Z"/>
  <path class="cls-15" d="M42.99,59.04c-4.25-.96-8.08-2.08-12.02-3.46-.06-1.15-.14-2.17.04-3.25,4.33,1.58,8.39,2.71,12.77,3.68-.18.98-.38,1.88-.78,3.03Z"/>
  <path class="cls-15" d="M120.28,59.02c-.34-1.11-.38-2.06-.51-3.09,4.2-.99,8.1-2.08,12.25-3.62.19,1.14.15,2.14.03,3.28-3.82,1.38-7.59,2.44-11.78,3.43Z"/>
  <path class="cls-17" d="M20.85,46.47l-.05,39.33c-1.01.06-1.83.07-2.95,0l.27-41.24.06,41c.83.08,1.54.08,2.39,0l.02-40.33c.35.36.27.85.27,1.25Z"/>
  <path class="cls-14" d="M142.2,46.47c0-.4-.07-.9.28-1.25l.02,40.33c.84.08,1.55.08,2.35,0l.23-40.52.12,40.76c-1.13.07-1.91.07-2.93,0l-.06-39.33Z"/>
  <path class="cls-9" d="M110.28,52.23c-3.97-4.26-10.47-2.54-11.29,3.07.67,2.71.67,5.42-.89,7.84-.66,1.02-1.9,2.71-3.14,2.57-.44,1.85-4.22.58-4.28-.95-1.08-4.39-.88-8.24,3.38-10.87,1.01-4.66,4.5-7.71,8.83-9.15.57-.63,2.37-.52,3.29-.42.7-.08,1.12.14,1.25.65,4.87,1.22,8.45,4.86,10.06,9.67,3.31,9.9-2.87,21.64-13.17,22.05-3.8.14-7.77.15-11.61.02-.06,0-.11-.11-.16-.26-.17-.08-.42-.2-.4-.34.07-.53.56-2.1.8-2.66.06-.71.34-1.08.83-1.11.09-.2.16-.19.23.02,3.28.25,6.61.32,9.87-.19"/>
  <path class="cls-1" d="M58.25,72.34c2.32.19,4.7.23,7.14.13.31-.01.62-.08.9-.2.88-.37,2.89-1.29,3.82-2.42l5.21-6.31c.87-1.05,2.17-1.49,3.35-.66.82.58,1.34,2.12.54,3.1l-5.82,7.1c-.16,1.25-1.88,2.5-2.98,3.06l-.68-.11c-.14,0-1.8.47-1.88.47-3.97.35-8.02.36-12-.01-.08,0-2.08-.71-2.66-.96-6.75-2.77-9.98-10.76-8.01-17.69s8.33-12.18,16.05-11.37c-.91,1.47-1.53,2.83-1.85,4.48-5.69.31-9.73,4.76-10.12,10.36s3.49,10.36,8.99,11.03Z"/>
  <path class="cls-3" d="M94.97,65.7c.64,1.09-.02,5.52-.74,6.28-.13.13-.28.24-.43.35l-1.23,4.11c.49.17.49.34,0,.51-3.37,6.93-10.1,11.32-17.31,7.47-2.97-1.58-5.46-4.71-5.53-8.39,1.29-.92,2.65-1.71,3.66-2.95-.05,3.63,2.17,6.96,5.71,7.92,8.62,2.34,10.67-10.68,11.58-16.25,1.13.94,2.89,1.99,4.28.95Z"/>
  <path class="cls-8" d="M107.44,44.97c-1.43-.36-3.1-.06-4.54-.23-.49-3.65-2.59-6.81-5.39-8.55-3.63-2.27-7.49-2.2-11.24-.78-1.99-.43-4.15-1.08-6.37-1.07,4.66-4.49,11.54-5.73,17.58-3.3,5.57,2.24,9.73,7.76,9.97,13.94Z"/>
  <path class="cls-15" d="M60.24,61.74l-9.19-1.2c.13-1.01.5-1.9.92-2.97l7.25.95c.34,1.06.52,2.05,1.02,3.23Z"/>
  <path class="cls-15" d="M67.81,69.65c-1.82,1.52-4.7,1.24-6.13,1.16s-6.07-.32-8.27-2.71c4.8.67,9.45,1.14,14.4,1.55Z"/>
  <path class="cls-1" d="M67.85,76.51c-3.83.71-8.18.73-12-.01h12Z"/>
  <path class="cls-16" d="M69.55,57.75s-.17.41-.17.48l-.46,5.3c-1.29.27-2.67.37-3.95.02-.08.01-.16,0-.24-.01-.72-.39-1.37-.88-1.95-1.47-3.79-5.01-2.06-16.15,2.93-16.21l13.43-.14c.41,0,.41-1.31.03-1.32l-8.58-.19c.13-2.34-.78-5.33,1.48-6.56,4.17-2.26,16.39-2.84,16.36,3.75l-.03,7.88c-.01,2.68-2.13,4.74-4.81,4.76l-8.78.05c-2.47.01-4.45,1.45-5.25,3.65Z"/>
  <path class="cls-16" d="M63.74,63.18c1.14-.19,3.72.6,4.96.16l.68-5.12-.25,5.64c-1.57-.15-4.36.23-5.39-.68Z"/>
  <path class="cls-16" d="M64.73,63.54c-1.06-.08-1.46-.82-1.95-1.47.63.45,1.58.8,1.95,1.47Z"/>
  <circle class="cls-12" cx="74.41" cy="40.49" r="1.53"/>
  <path class="cls-13" d="M103.89,72.16l-.54.12c-.31.07-.63.12-.95.13-2.79.13-5.59.22-8.38-.06l-.23-.02c.64-2.14.96-4.4,1.17-6.62,3.41-2.56,4.67-5.64,3.62-9.93-.56-2.32,1.95-4.95,3.69-5.79,2.66-1.27,5.51-.59,7.66,1.26,3.58,3.08,4.67,8.14,3.22,12.83-1.28,4.15-4.82,7.28-9.27,8.08Z"/>
  <path class="cls-15" d="M100.51,61.97c-.12-1.18.19-2.11.36-3.16l10.72-1.34c.47.94.49,2.01.4,3.13l-11.48,1.37Z"/>
  <path class="cls-15" d="M108.16,68.3c-1.25,2.52-11.45,3.12-12.43,1.53l12.43-1.53Z"/>
  <path class="cls-2" d="M78.67,68.2c.76-1.19,2.46-2.66,2.02-4.22-.36-1.31-1.43-2.4-2.58-2.72-3.75-1.08-5.19,4.99-7.88,5.52-.25-2.91-.66-5.93.07-8.42,1.49-5.06,7.03-3.12,13.99-3.59,2.49-.17,4.77-1.97,4.84-4.29l.16-5.25c2.28-.84,5.79-.8,7.13,1.73-1.47,1.77-2.53,4.18-3.82,5.97l-2.86,3.98c-1.34,1.87-1.57,4.43-.53,6.57-1.02,2.77.72,5.76-1.78,8.43-1.9,2.03-9.23,2.41-12.26,1.21.66-.95,3.03-4.19,3.49-4.92Z"/>
  <path class="cls-7" d="M78.37,60.75c-4.18-.85-4.8,3.04-7.71,5.33-.43-3.76-.84-10.59,4.45-10.66l9.79-.13c2.46-.03,4.47-2.34,4.74-4.68.21-1.8.14-3.35.15-4.89,1.5-.3,3.58-.59,6.11,1.17-1.88,1.68-2.81,4.21-4.02,6.01-2.3,3.44-5.33,6.34-3.13,10.64l-7.5-.03c-.64-1.25-1.62-2.49-2.89-2.75Z"/>
  <path class="cls-10" d="M86.96,71.49c-3.04,2.35-7.38,1.76-10.98,1.49,1.67-2.93,4.22-4.66,5.57-7.74,2.25-.19,4.25-.1,6.71-.05-.15,1.99.56,4.86-1.3,6.3Z"/>
  <circle class="cls-2" cx="84.52" cy="68.92" r="1.54"/>
  <g id="Layer_2" data-name="Layer 2">
    <text class="cls-6" transform="translate(3.24 108.45)"><tspan x="0" y="0">pan-scm-sdk</tspan></text>
    <text class="cls-11" transform="translate(5.49 121.47)"><tspan x="0" y="0">Python SDK for Strata Cloud Manager</tspan></text>
  </g>
</svg>