<svg width="2172" height="724" viewBox="0 0 2172 724" fill="none" xmlns="http://www.w3.org/2000/svg" role="img" aria-labelledby="title desc">
  <title id="title">pan-scm-sdk logo</title>
  <desc id="desc">A minimalist cloud icon with a code symbol, followed by the pan-scm-sdk wordmark in slate, blue, and cyan.</desc>
  <defs>
    <linearGradient id="cloudStroke" x1="108" y1="110" x2="706" y2="492" gradientUnits="userSpaceOnUse">
      <stop offset="0" stop-color="#006DFF"/>
      <stop offset="0.55" stop-color="#0A6CFF"/>
      <stop offset="1" stop-color="#20C8C7"/>
    </linearGradient>
    <linearGradient id="codeAccent" x1="355" y1="262" x2="452" y2="386" gradientUnits="userSpaceOnUse">
      <stop offset="0" stop-color="#0A6CFF"/>
      <stop offset="1" stop-color="#20C8C7"/>
    </linearGradient>
    <linearGradient id="scmFill" x1="1190" y1="250" x2="1650" y2="455" gradientUnits="userSpaceOnUse">
      <stop offset="0" stop-color="#0A6CFF"/>
      <stop offset="1" stop-color="#006DFF"/>
    </linearGradient>
    <linearGradient id="sdkFill" x1="1725" y1="255" x2="2025" y2="455" gradientUnits="userSpaceOnUse">
      <stop offset="0" stop-color="#12AFC2"/>
      <stop offset="1" stop-color="#20C8C7"/>
    </linearGradient>
  </defs>

  <!-- Icon: cloud + SDK/code motif -->
  <g id="cloud-sdk-icon" stroke-linecap="round" stroke-linejoin="round">
    <path
      d="M283 490H214C151 490 100 439 100 376C100 313 151 262 214 262C222 176 291 109 379 109C476 109 553 187 553 283C580 262 620 260 652 282C693 311 714 358 704 407C694 457 654 490 598 490H356"
      stroke="url(#cloudStroke)"
      stroke-width="32"/>
    <path d="M344 272L284 323L344 374" stroke="#1B293D" stroke-width="32"/>
    <path d="M464 272L524 323L464 374" stroke="#1B293D" stroke-width="32"/>
    <path d="M421 260L385 386" stroke="url(#codeAccent)" stroke-width="28"/>
  </g>

  <!-- Wordmark -->
  <text
    x="742"
    y="449"
    font-family="Inter, ui-sans-serif, system-ui, -apple-system, BlinkMacSystemFont, 'Segoe UI', sans-serif"
    font-size="181"
    font-weight="760"
    letter-spacing="-7"
    dominant-baseline="alphabetic"><tspan fill="#1B293D">pan-</tspan><tspan fill="url(#scmFill)">scm</tspan><tspan fill="#1B293D">-</tspan><tspan fill="url(#sdkFill)">sdk</tspan></text>
</svg>
